<svg width="20" height="23" viewBox="0 0 25 23" fill="none" xmlns="http://www.w3.org/2000/svg">
<path d="M18.2243 16.9647C18.2799 17.0608 18.316 17.1669 18.3306 17.2769C18.3452 17.387 18.338 17.4988 18.3094 17.6061C18.2807 17.7133 18.2313 17.8139 18.1638 17.902C18.0963 17.9901 18.0121 18.0641 17.9161 18.1196C17.788 18.1947 17.6422 18.2341 17.4937 18.2337C17.3454 18.2338 17.1996 18.1948 17.0711 18.1206C16.9426 18.0465 16.8359 17.9397 16.7617 17.8112C16.7617 17.8112 14.9816 15.5351 13.7273 14.8185C12.4729 14.102 11.0535 13.7251 9.60903 13.7251C8.1646 13.7251 6.74515 14.102 5.49079 14.8185C4.23642 15.5351 3.19053 16.5666 2.45634 17.8112C2.40354 17.9122 2.33086 18.0014 2.24269 18.0736C2.15451 18.1458 2.05266 18.1993 1.94325 18.2311C1.83385 18.2628 1.71916 18.2721 1.60607 18.2584C1.49299 18.2446 1.38385 18.2081 1.28523 18.1511C1.1866 18.0941 1.10053 18.0177 1.03218 17.9265C0.963838 17.8353 0.914635 17.7312 0.887533 17.6205C0.860432 17.5098 0.855992 17.3948 0.87448 17.2823C0.892968 17.1698 0.934004 17.0623 0.995116 16.9661C2.14556 14.9884 3.94687 13.4719 6.09111 12.6759C4.91981 11.915 4.02575 10.7956 3.5423 9.48477C3.05885 8.1739 3.01191 6.74178 3.40849 5.40204C3.80507 4.0623 4.62391 2.88673 5.74287 2.05069C6.86183 1.21465 8.22094 0.762939 9.61747 0.762939C11.014 0.762939 12.3731 1.21465 13.4921 2.05069C14.611 2.88673 15.4299 4.0623 15.8265 5.40204C16.223 6.74178 16.1761 8.1739 15.6926 9.48477C15.2092 10.7956 14.3151 11.915 13.1438 12.6759C15.2821 13.4746 17.0775 14.9903 18.2243 16.9647ZM9.61044 12.0351C10.5571 12.0351 11.4825 11.7542 12.2696 11.228C13.0567 10.7018 13.6701 9.95389 14.0324 9.07885C14.3947 8.20381 14.4894 7.24095 14.3048 6.31202C14.1201 5.38308 13.6642 4.5298 12.9949 3.86008C12.3255 3.19035 11.4726 2.73427 10.5442 2.54949C9.61575 2.36471 8.65338 2.45955 7.7788 2.822C6.90422 3.18445 6.15671 3.79824 5.63078 4.58575C5.10486 5.37327 4.82415 6.29913 4.82415 7.24626C4.82415 8.51633 5.32842 9.73437 6.22602 10.6324C7.12362 11.5305 8.34103 12.0351 9.61044 12.0351Z" fill="#3C3F43"/>
<path d="M16 20C16 20 17 20 18 22C18 22 21.1765 17 24 16" stroke="#3C3F43" stroke-width="1.5" stroke-linecap="round" stroke-linejoin="round"/>
</svg>
